<svg width="50" height="50" viewBox="0 0 50 50" fill="none" xmlns="http://www.w3.org/2000/svg">
<circle cx="25" cy="25" r="25" fill="#F0F0F0"/>
<path fill-rule="evenodd" clip-rule="evenodd" d="M17.5929 11.667C16.0213 11.667 14.514 12.2913 13.4027 13.4027C12.2913 14.514 11.667 16.0213 11.667 17.5929V32.4077C11.667 33.9794 12.2913 35.4867 13.4027 36.598C14.514 37.7093 16.0213 38.3337 17.5929 38.3337H32.4077C33.9794 38.3337 35.4867 37.7093 36.598 36.598C37.7093 35.4867 38.3337 33.9794 38.3337 32.4077V17.5929C38.3337 16.0213 37.7093 14.514 36.598 13.4027C35.4867 12.2913 33.9794 11.667 32.4077 11.667H17.5929ZM32.8996 22.1188C33.1177 21.7919 33.1969 21.3918 33.12 21.0064C33.043 20.6211 32.8161 20.2821 32.4892 20.064C32.1623 19.846 31.7622 19.7667 31.3768 19.8436C30.9915 19.9206 30.6525 20.1475 30.4344 20.4744C29.91 21.1707 29.3603 21.8374 28.7174 22.43C27.7677 23.306 26.4773 22.5211 26.4719 21.2291L26.4714 21.1233C26.429 20.7629 26.2557 20.4307 25.9846 20.1895C25.7134 19.9484 25.3632 19.8152 25.0003 19.8151C24.1974 19.8611 23.5188 20.4537 23.5188 21.2966C23.5188 24.5538 20.129 26.4002 19.3185 23.2454C19.1567 22.6155 19.0744 21.9581 19.0744 21.2966C19.0744 20.9037 18.9183 20.5269 18.6405 20.2491C18.3627 19.9712 17.9858 19.8151 17.5929 19.8151C17.2 19.8151 16.8232 19.9712 16.5454 20.2491C16.2675 20.5269 16.1114 20.9037 16.1114 21.2966C16.1114 26.6774 19.83 30.9263 25.0003 30.9263C25.3932 30.9263 25.7701 30.7702 26.0479 30.4923C26.3257 30.2145 26.4818 29.8377 26.4818 29.4448C26.4818 28.1968 27.5803 27.2122 28.682 27.7985C29.7579 28.3712 30.6458 29.233 31.0833 30.107C31.1665 30.2871 31.285 30.4487 31.4319 30.5821C31.5787 30.7155 31.7508 30.8181 31.9381 30.8838C32.1253 30.9494 32.3238 30.9768 32.5218 30.9642C32.7198 30.9517 32.9133 30.8995 33.0907 30.8108C33.2682 30.7221 33.426 30.5986 33.5549 30.4477C33.6837 30.2968 33.7809 30.1216 33.8407 29.9324C33.9006 29.7433 33.9218 29.544 33.9031 29.3465C33.8845 29.1489 33.8263 28.9572 33.7322 28.7825C33.1352 27.5874 32.1024 26.4574 30.8183 25.6138C30.4753 25.3885 30.4253 24.8851 30.7277 24.6077C31.5439 23.8634 32.2726 23.0283 32.8996 22.1188Z" fill="#0077FF"/>
</svg>
