<svg width="50" height="50" viewBox="0 0 50 50" fill="none" xmlns="http://www.w3.org/2000/svg">
<circle cx="25" cy="25" r="25" fill="#F0F0F0"/>
<path d="M26.2232 27.9197C25.578 27.9197 24.9828 28.2673 24.6657 28.8292L20.2607 36.6359C19.9596 37.1696 19.3942 37.4998 18.7813 37.4998C17.4725 37.4998 16.6554 36.0817 17.3117 34.9493L19.3978 31.3502C20.6494 29.1907 19.4184 26.5091 18.1199 24.3774C17.4797 23.3265 17.12 22.0123 17.12 20.366C17.1138 15.1218 21.3257 12.4998 26.3293 12.4998C29.1405 12.4998 31.4194 14.7787 31.4194 17.5899V35.7958C31.4194 36.7369 30.6566 37.4998 29.7155 37.4998C28.7744 37.4998 28.0116 36.7369 28.0116 35.7958V29.708C28.0116 28.7204 27.2109 27.9197 26.2232 27.9197ZM28.0116 16.5886C28.0116 15.5844 27.1974 14.7703 26.1932 14.7703C23.4471 14.7703 20.7876 16.2058 20.7876 20.366C20.7876 24.3845 23.2244 25.6785 26.1932 25.6785C27.1974 25.6785 28.0116 24.8644 28.0116 23.8601V16.5886Z" fill="#FF0000"/>
</svg>
