<svg width="70" height="70" viewBox="0 0 70 70" fill="none" xmlns="http://www.w3.org/2000/svg">
<circle cx="35" cy="35" r="35" fill="#4144E6"/>
<path d="M17.1886 15.8482C17.0114 15.9155 16.7235 16.1099 16.5537 16.2818C15.9705 16.8725 15.9926 16.4986 16.0148 23.8778C16.0369 30.1205 16.0443 30.4271 16.1772 30.6962C16.3691 31.085 16.7088 31.414 17.1074 31.6009C17.3954 31.7354 17.6168 31.7579 18.8645 31.7803L20.282 31.8102V33.3354V34.8606H22.4821H24.6748L24.3795 35.496L24.0842 36.1315H22.7774H21.4633V39.4959V42.8602H20.2894C19.6471 42.8602 18.9384 42.8976 18.7243 42.935C18.237 43.0247 17.8088 43.3163 17.5135 43.7574L17.292 44.0938L17.2698 47.1741L17.2477 50.2618H16.6275H16V51.3309C16 52.6169 16.096 52.9757 16.5537 53.4393C17.1296 54.0224 16.9155 54.0075 22.8365 53.985C28.6541 53.9626 28.2998 53.9925 28.8461 53.4542C29.3112 52.9982 29.3924 52.6842 29.3998 51.4207V50.2992L28.7944 50.2768L28.1816 50.2544V47.3236C28.1743 45.1331 28.1521 44.3256 28.0783 44.1237C27.9232 43.6826 27.6058 43.3238 27.1628 43.107L26.742 42.8976L24.7339 42.8752L22.7184 42.8528V40.0865V37.3277H23.309H23.8922L23.9365 37.6044C24.0546 38.3894 24.158 38.7632 24.4016 39.2716C24.7708 40.0342 25.5091 40.7893 26.2621 41.1706C27.3031 41.6865 27.0742 41.6715 35.1436 41.6491C42.2459 41.6266 42.4009 41.6192 42.8365 41.4696C43.8111 41.1257 44.5641 40.5725 45.0883 39.8099C45.295 39.5034 45.6789 38.7034 45.6789 38.5763C45.6789 38.5314 45.7158 38.3595 45.7601 38.2025L45.8339 37.9259L47.0669 37.9408L48.2998 37.9632L48.322 40.4155L48.3367 42.8602H46.1957H44.0547V48.4301V54H48.9273H53.8V48.4301V42.8602H51.659H49.518V39.7949V36.7296H47.6723H45.8266L45.7896 36.5203C45.7601 36.4082 45.6789 36.139 45.5977 35.9222C45.5239 35.6979 45.4574 35.5035 45.4574 35.4886C45.4574 35.4736 46.1071 35.4587 46.8971 35.4587H48.3367V31.7579V28.0571H49.8502H51.3637V27.459V26.8683L50.7583 26.8459L50.1455 26.8235V26.2254V25.6273L51.3268 25.5899C52.412 25.5525 52.5375 25.5375 52.8402 25.3656C53.2241 25.1488 53.6154 24.6553 53.7262 24.2591C53.7705 24.0871 53.8 22.7115 53.8 20.648C53.8 16.865 53.7926 16.8351 53.2463 16.2818C52.6778 15.6987 52.8107 15.7136 47.5541 15.7361C42.9546 15.7585 42.9104 15.7585 42.615 15.923C42.2311 16.1323 41.958 16.4314 41.7734 16.8426C41.6257 17.164 41.6184 17.321 41.6184 20.6555C41.6184 23.9899 41.6257 24.1469 41.7734 24.4684C41.9727 24.917 42.2459 25.2011 42.6889 25.4104C43.0211 25.5749 43.154 25.5899 44.1507 25.5899H45.2359V26.2254V26.8609H44.6453H44.0547V27.459V28.0571H45.5682H47.0816V31.1598V34.2624H45.8709H44.6527L44.099 33.8587C43.7963 33.6419 43.3829 33.4027 43.1835 33.3279L42.8218 33.1933L42.7775 32.5877C42.6224 30.2476 40.7472 28.3337 38.3699 28.087C37.4175 27.9898 36.0812 28.3412 35.2839 28.8944C34.8262 29.2159 34.1912 29.814 34.0141 30.1205L33.8664 30.3598L33.3275 30.1654C32.8623 29.9935 32.6852 29.971 31.873 29.971C31.0536 29.971 30.8837 29.9935 30.3596 30.1804C29.6656 30.4196 29.1119 30.7486 28.5582 31.2495C28.1669 31.5934 27.5689 32.4382 27.3769 32.9018C27.3179 33.0363 27.244 33.141 27.2071 33.141C27.1702 33.141 26.8896 33.2382 26.5796 33.3653L26.0259 33.5896H23.7446H21.4633V32.6999V31.8102L22.9251 31.7803C24.3721 31.7579 24.3795 31.7579 24.7708 31.5411C25.1916 31.3018 25.4943 30.9504 25.642 30.5317C25.7158 30.3224 25.7379 28.8496 25.7453 23.7133V17.1715L25.546 16.7603C25.3171 16.3117 24.8668 15.923 24.4312 15.7959C24.2614 15.751 22.9177 15.7211 20.8357 15.7286C18.0229 15.7286 17.4618 15.751 17.1886 15.8482ZM24.2688 17.0668C24.4312 17.1566 24.5641 17.5229 24.5641 17.8967V18.1883H20.9096H17.2551V17.7621C17.2551 17.4332 17.292 17.2986 17.4175 17.164L17.5725 16.9921H20.8505C22.8513 16.9921 24.1802 17.022 24.2688 17.0668ZM52.3751 17.1566L52.5449 17.3136V19.6238V21.9265L47.6944 21.9115L42.8365 21.8891L42.8144 19.8331C42.7922 17.5977 42.807 17.3584 43.0285 17.1341C43.1614 16.9996 43.309 16.9921 47.687 16.9921H52.2053L52.3751 17.1566ZM24.5641 22.5246V25.5899H20.9096H17.2551V22.5246V19.4593H20.9096H24.5641V22.5246ZM52.5449 23.5414C52.5449 24.0498 52.4711 24.2068 52.1684 24.3114C51.8362 24.431 43.5822 24.4236 43.2426 24.3114C42.962 24.2068 42.7996 23.8853 42.7996 23.4217V23.1227H47.6723H52.5449V23.5414ZM48.9273 26.2254V26.8609H47.7092H46.491V26.2254V25.5899H47.7092H48.9273V26.2254ZM24.5493 28.5131L24.5271 30.1654L24.3204 30.3448L24.1137 30.5243H20.88C17.7202 30.5243 17.639 30.5243 17.447 30.3673L17.2551 30.2177V28.5356V26.8609H20.917H24.5714L24.5493 28.5131ZM38.8941 29.4477C40.3559 29.8813 41.3747 31.0775 41.5814 32.5952C41.6036 32.7971 41.5962 33.2307 41.5519 33.5522C41.5076 33.8737 41.4781 34.1428 41.4929 34.1578C41.5002 34.1727 41.7586 34.2325 42.0613 34.2924C42.364 34.3596 42.7848 34.4942 42.9989 34.5989C43.5084 34.8531 44.1876 35.6082 44.4164 36.1839C45.0661 37.8137 44.2171 39.6678 42.5634 40.236C42.113 40.393 42.0318 40.393 34.9 40.393C27.7682 40.393 27.687 40.393 27.2366 40.236C25.6715 39.7052 24.8151 38.0081 25.295 36.4231C25.6493 35.2867 26.6165 34.4568 27.8199 34.2774L28.189 34.2251L28.4327 33.612C28.7354 32.8569 29.075 32.3934 29.673 31.9298C30.8321 31.0401 32.1831 30.9355 33.5711 31.6308C33.955 31.8252 34.2872 31.9896 34.3094 32.0046C34.3389 32.0121 34.4866 31.7579 34.649 31.4439C35.1436 30.4495 36.1108 29.6421 37.0853 29.4103C37.5504 29.2982 38.4585 29.3206 38.8941 29.4477ZM26.7568 44.3107L26.9635 44.4901L26.9856 47.376L27.0078 50.2618H22.7184H18.4363V47.4507C18.4363 44.5873 18.4511 44.4452 18.7243 44.2284C18.8129 44.1611 19.78 44.1387 22.6962 44.1312H26.55L26.7568 44.3107ZM52.5449 45.9629V47.7946H48.8904H45.2359V45.9629V44.1312H48.8904H52.5449V45.9629ZM52.5449 50.8973V52.729H48.8904H45.2359V50.8973V49.0656H48.8904H52.5449V50.8973ZM28.1816 51.9365C28.1816 52.2281 28.1373 52.3851 28.0266 52.5346L27.8789 52.729H22.7331H17.5947L17.4249 52.5645C17.2846 52.43 17.2551 52.3253 17.2551 51.9664V51.5328H22.7184H28.1816V51.9365Z" fill="white"/>
<path d="M19.6914 28.6925V29.328L20.8948 29.313L22.0908 29.2906L22.113 28.6701L22.1351 28.057H20.9096H19.6914V28.6925Z" fill="white"/>
<path d="M46.4902 45.9626V46.5981H47.0809H47.6715V45.9626V45.3271H47.0809H46.4902V45.9626Z" fill="white"/>
<path d="M48.9277 45.9626V46.5981H50.1459H51.3641V45.9626V45.3271H50.1459H48.9277V45.9626Z" fill="white"/>
<path d="M46.4902 50.8975V51.533H47.7084H48.9266V50.8975V50.262H47.7084H46.4902V50.8975Z" fill="white"/>
<path d="M50.1611 50.3144C50.1315 50.3368 50.1094 50.6284 50.1094 50.9499V51.533H50.7369H51.3645V50.8975V50.262H50.7886C50.4711 50.262 50.1832 50.2845 50.1611 50.3144Z" fill="white"/>
</svg>
