<svg width="70" height="70" viewBox="0 0 70 70" fill="none" xmlns="http://www.w3.org/2000/svg">
<circle cx="35" cy="35" r="35" fill="#4144E6"/>
<g clip-path="url(#clip0_2_129)">
<path opacity="0.939" fill-rule="evenodd" clip-rule="evenodd" d="M19.6803 16.0632C29.8685 16.0632 40.0568 16.0632 50.2451 16.0632C51.5893 16.4109 52.3891 17.2722 52.6445 18.6472C52.6814 24.5042 52.6938 30.3612 52.6814 36.2182C52.2385 36.2182 51.7955 36.2182 51.3525 36.2182C51.3649 30.3612 51.3525 24.5042 51.3156 18.6472C51.0749 17.9881 50.6196 17.5574 49.9498 17.3552C39.9584 17.3059 29.967 17.3059 19.9756 17.3552C19.3057 17.5574 18.8505 17.9881 18.6098 18.6472C18.5728 26.3252 18.5605 34.0033 18.5728 41.6815C18.1299 41.6815 17.6869 41.6815 17.2439 41.6815C17.2316 34.0033 17.2439 26.3252 17.2808 18.6472C17.5363 17.2722 18.3361 16.4109 19.6803 16.0632Z" fill="white"/>
<path opacity="0.94" fill-rule="evenodd" clip-rule="evenodd" d="M20.4924 18.4995C30.1393 18.4872 39.7862 18.4995 49.433 18.5364C49.8211 18.703 50.0795 18.986 50.2082 19.3854C50.2451 24.578 50.2574 29.7705 50.2451 34.9632C49.8021 34.9632 49.3592 34.9632 48.9162 34.9632C48.9162 29.8936 48.9162 24.8241 48.9162 19.7546C39.6139 19.7546 30.3115 19.7546 21.0092 19.7546C21.0092 27.0636 21.0092 34.3725 21.0092 41.6815C20.5662 41.6815 20.1232 41.6815 19.6803 41.6815C19.668 34.2495 19.6803 26.8174 19.7172 19.3854C19.8601 18.9844 20.1185 18.6891 20.4924 18.4995Z" fill="white"/>
<path opacity="0.939" fill-rule="evenodd" clip-rule="evenodd" d="M53.8627 41.2386C53.8627 43.5518 53.8627 45.8652 53.8627 48.1784C53.1736 51.2792 51.2787 53.1742 48.1779 53.8632C47.5135 53.8632 46.849 53.8632 46.1845 53.8632C43.1674 53.2704 41.2848 51.4739 40.5367 48.4737C40.4544 47.2211 40.4175 45.966 40.426 44.7085C40.4175 43.451 40.4544 42.1959 40.5367 40.9433C41.1052 38.5543 42.5202 36.8931 44.7818 35.9599C45.3127 35.778 45.8542 35.6426 46.406 35.5538C46.4306 33.3882 46.4553 31.2225 46.4799 29.0569C46.4916 26.8359 46.4547 24.6211 46.3691 22.4124C46.3024 22.3237 46.2164 22.2622 46.1107 22.2278C41.3365 22.1786 36.5623 22.1786 31.7881 22.2278C31.5993 22.2784 31.4639 22.3892 31.382 22.5601C31.3451 23.2487 31.3328 23.9378 31.3451 24.6273C35.1492 25.048 37.6716 27.066 38.9125 30.6812C39.8163 34.2409 38.918 37.2556 36.2177 39.7251C33.598 41.7448 30.7187 42.2124 27.5799 41.1278C24.114 39.5916 22.2929 36.9215 22.1166 33.1175C22.2288 29.8714 23.6561 27.3982 26.3986 25.6978C27.5204 25.0544 28.7262 24.6975 30.0162 24.6273C29.9903 23.8115 30.0273 22.9995 30.1269 22.1909C30.3413 21.5583 30.772 21.1522 31.4189 20.9728C36.4392 20.9235 41.4595 20.9235 46.4799 20.9728C47.1696 21.2196 47.6003 21.6995 47.7719 22.4124C47.7842 26.7931 47.8211 31.1735 47.8826 35.5538C51.1541 36.1186 53.1474 38.0135 53.8627 41.2386ZM29.7209 25.8823C33.3094 25.6734 35.8811 27.1746 37.4359 30.3859C38.6345 34.0494 37.6871 37.0149 34.5935 39.2821C31.8417 40.8624 29.1347 40.7885 26.4724 39.0607C23.8634 37.0172 22.9406 34.3718 23.7039 31.1241C24.6931 28.2027 26.6987 26.4554 29.7209 25.8823ZM46.7752 36.8089C49.5074 36.8386 51.3654 38.1182 52.3492 40.648C52.4462 40.962 52.5077 41.2819 52.5338 41.6077C51.3525 41.6077 50.1713 41.6077 48.99 41.6077C49.0935 39.8529 48.2814 39.0777 46.5537 39.2821C45.5493 39.7277 45.1309 40.5029 45.2986 41.6077C44.1174 41.6077 42.9361 41.6077 41.7549 41.6077C42.0969 39.5335 43.2289 38.0692 45.151 37.215C45.6872 37.0172 46.2286 36.8818 46.7752 36.8089ZM46.9228 40.5003C47.3148 40.4313 47.5732 40.5789 47.698 40.9433C47.7473 41.8538 47.7473 42.7644 47.698 43.6749C47.4756 44.0466 47.1679 44.1328 46.7752 43.9333C46.6853 43.8116 46.6238 43.6763 46.5906 43.5273C46.5414 42.6906 46.5414 41.8538 46.5906 41.0171C46.6573 40.8153 46.7681 40.643 46.9228 40.5003ZM41.681 42.9366C42.8869 42.9366 44.0928 42.9366 45.2986 42.9366C45.2356 44.831 46.1215 45.5816 47.9564 45.1884C48.8463 44.6993 49.1909 43.9487 48.99 42.9366C50.1958 42.9366 51.4018 42.9366 52.6076 42.9366C52.6199 44.5364 52.6076 46.1361 52.5707 47.7355C52.0083 50.7465 50.1995 52.3707 47.1443 52.6081C43.9882 52.3436 42.1794 50.6455 41.7179 47.514C41.681 45.9884 41.6687 44.4626 41.681 42.9366Z" fill="white"/>
<path opacity="0.93" fill-rule="evenodd" clip-rule="evenodd" d="M30.0162 26.9897C30.4592 26.9897 30.9022 26.9897 31.3451 26.9897C31.3208 27.411 31.3455 27.8293 31.419 28.2448C33.0243 28.6481 33.8117 29.6817 33.7815 31.3456C33.3385 31.3456 32.8955 31.3456 32.4526 31.3456C32.5472 30.4197 32.1535 29.8168 31.2713 29.5368C30.4396 29.3414 29.7383 29.5505 29.1672 30.1644C28.6756 31.1751 28.934 31.9257 29.9424 32.4161C30.5053 32.497 31.0713 32.5462 31.6405 32.5638C33.1623 33.0531 33.8636 34.099 33.7446 35.7015C33.4588 37.0087 32.659 37.7715 31.3451 37.9901C31.3451 38.4085 31.3451 38.8268 31.3451 39.2452C30.9022 39.2452 30.4592 39.2452 30.0162 39.2452C30.0162 38.8268 30.0162 38.4085 30.0162 37.9901C28.3832 37.6567 27.5711 36.6477 27.5799 34.9632C28.0229 34.9632 28.4658 34.9632 28.9088 34.9632C28.8466 35.8227 29.2158 36.401 30.0162 36.6981C30.5391 36.7634 31.0559 36.7388 31.5666 36.6243C32.296 36.2358 32.579 35.633 32.4156 34.8155C32.2241 34.304 31.8673 33.9718 31.3451 33.8188C30.0613 34.0063 28.9908 33.6249 28.1336 32.6745C27.2838 31.1915 27.4929 29.8749 28.7612 28.7247C29.1305 28.5031 29.5242 28.3431 29.9424 28.2448C30.0159 27.8293 30.0405 27.411 30.0162 26.9897Z" fill="white"/>
<path opacity="0.968" fill-rule="evenodd" clip-rule="evenodd" d="M16.0627 42.8628C19.7295 42.8628 23.3963 42.8628 27.0631 42.8628C27.0631 43.2812 27.0631 43.6995 27.0631 44.1179C23.8146 44.1179 20.5662 44.1179 17.3178 44.1179C17.2878 44.9347 17.3247 45.7468 17.4285 46.5542C17.6823 47.1772 18.1376 47.5586 18.7943 47.6985C25.6111 47.7354 32.4279 47.7478 39.2447 47.7354C39.2447 48.1538 39.2447 48.5721 39.2447 48.9905C32.3048 49.0029 25.365 48.9905 18.4252 48.9536C17.2059 48.6079 16.4184 47.8327 16.0627 46.628C16.0627 45.3729 16.0627 44.1179 16.0627 42.8628Z" fill="white"/>
<path opacity="0.968" fill-rule="evenodd" clip-rule="evenodd" d="M28.2443 42.8628C31.9111 42.8628 35.5779 42.8628 39.2447 42.8628C39.2447 43.2812 39.2447 43.6995 39.2447 44.1179C35.9963 44.1179 32.7478 44.1179 29.4994 44.1179C29.4872 44.3652 29.4995 44.6113 29.5363 44.8562C29.6225 45.0407 29.7578 45.176 29.9424 45.2622C33.0431 45.2991 36.1438 45.3115 39.2447 45.2991C39.2447 45.7175 39.2447 46.1358 39.2447 46.5542C35.9426 46.5899 32.6449 46.553 29.3517 46.4435C28.7859 46.2221 28.4291 45.8161 28.2812 45.2253C28.2443 44.4382 28.232 43.6507 28.2443 42.8628Z" fill="white"/>
<path opacity="0.892" fill-rule="evenodd" clip-rule="evenodd" d="M19.6803 45.2991C20.1233 45.2991 20.5662 45.2991 21.0092 45.2991C21.0092 45.7175 21.0092 46.1358 21.0092 46.5542C20.5662 46.5542 20.1233 46.5542 19.6803 46.5542C19.6803 46.1358 19.6803 45.7175 19.6803 45.2991Z" fill="white"/>
<path opacity="0.892" fill-rule="evenodd" clip-rule="evenodd" d="M22.1166 45.2991C22.5595 45.2991 23.0025 45.2991 23.4455 45.2991C23.4455 45.7175 23.4455 46.1358 23.4455 46.5542C23.0025 46.5542 22.5595 46.5542 22.1166 46.5542C22.1166 46.1358 22.1166 45.7175 22.1166 45.2991Z" fill="white"/>
<path opacity="0.892" fill-rule="evenodd" clip-rule="evenodd" d="M24.5529 45.2991C24.9959 45.2991 25.4389 45.2991 25.8818 45.2991C25.8818 45.7175 25.8818 46.1358 25.8818 46.5542C25.4389 46.5542 24.9959 46.5542 24.5529 46.5542C24.5529 46.1358 24.5529 45.7175 24.5529 45.2991Z" fill="white"/>
</g>
<defs>
<clipPath id="clip0_2_129">
<rect width="37.8" height="37.8" fill="white" transform="translate(16.0996 16.1001)"/>
</clipPath>
</defs>
</svg>
