<svg width="70" height="70" viewBox="0 0 70 70" fill="none" xmlns="http://www.w3.org/2000/svg">
<circle cx="35" cy="35" r="35" fill="#4144E6"/>
<g clip-path="url(#clip0_2_170)">
<path d="M20.234 16.7865C19.8722 16.9047 19.2521 17.5396 19.1413 17.9161C19.0084 18.3591 19.0084 51.6408 19.1413 52.0838C19.2595 52.4898 19.8722 53.1026 20.2783 53.2207C20.7213 53.3536 49.278 53.3536 49.7209 53.2207C50.127 53.1026 50.7398 52.4898 50.8579 52.0838C50.9834 51.6482 50.9908 18.3591 50.8579 17.9309C50.8136 17.7684 50.629 17.4731 50.4518 17.2812C49.876 16.6389 51.3009 16.6906 34.9701 16.6979C24.6415 16.7053 20.4186 16.7275 20.234 16.7865ZM49.5807 18.0564L49.7652 18.2336V34.9999V51.7663L49.5807 51.9435L49.4035 52.128H34.9996H20.5957L20.4186 51.9435L20.234 51.7663V34.9999V18.2336L20.4186 18.0564L20.5957 17.8718H34.9996H49.4035L49.5807 18.0564Z" fill="white"/>
<path d="M21.4152 21.4156V23.7781H22.0059H22.5965V22.0062V20.2343H24.3684H26.1402V19.6437V19.0531H23.7777H21.4152V21.4156Z" fill="white"/>
<path d="M43.859 19.6437V20.2343H45.6309H47.4027V22.0062V23.7781H47.9934H48.584V21.4156V19.0531H46.2215H43.859V19.6437Z" fill="white"/>
<path d="M23.7777 30.2749V39.1343H34.9996H46.2215V30.2749V21.4155H34.9996H23.7777V30.2749ZM28.5027 24.3687V26.1405H26.7309H24.959V24.3687V22.5968H26.7309H28.5027V24.3687ZM45.0402 27.9124V33.228H42.6777H40.3152V35.5905V37.953H34.9996H29.684V35.5905V33.228H27.3215H24.959V30.2749V27.3218H27.3215H29.684V24.9593V22.5968H37.3621H45.0402V27.9124ZM28.5027 36.1812V37.953H26.7309H24.959V36.1812V34.4093H26.7309H28.5027V36.1812ZM45.0402 36.1812V37.953H43.2684H41.4965V36.1812V34.4093H43.2684H45.0402V36.1812Z" fill="white"/>
<path d="M26.3248 23.9626C25.9557 24.3244 26.2141 24.9593 26.7309 24.9593C27.0336 24.9593 27.3215 24.6714 27.3215 24.3687C27.3215 24.066 27.0336 23.778 26.7309 23.778C26.5906 23.778 26.4355 23.8445 26.3248 23.9626Z" fill="white"/>
<path d="M30.8652 25.5499V27.3218H32.0465H33.2277V26.7312V26.1405H32.6371H32.0465V24.9593V23.778H31.4559H30.8652V25.5499Z" fill="white"/>
<path d="M33.2277 24.3687V24.9593H33.8184H34.409V26.7312V28.5031H34.9996H35.5902V26.1406V23.7781H34.409H33.2277V24.3687Z" fill="white"/>
<path d="M36.7715 24.3687V24.9593H37.3621H37.9527V24.3687V23.778H37.3621H36.7715V24.3687Z" fill="white"/>
<path d="M39.134 25.5499V27.3218H39.7246H40.3152V26.1405V24.9593H42.0871H43.859V24.3687V23.778H41.4965H39.134V25.5499Z" fill="white"/>
<path d="M36.7715 26.7312V27.3218H37.3621H37.9527V26.7312V26.1405H37.3621H36.7715V26.7312Z" fill="white"/>
<path d="M41.4965 26.7312V27.3218H42.0871H42.6777V28.5031V29.6843H43.2684H43.859V27.9125V26.1406H42.6777H41.4965V26.7312Z" fill="white"/>
<path d="M26.1402 30.2749V32.0468H27.9121H29.684V31.4562V30.8656H28.5027H27.3215V29.6843V28.5031H26.7309H26.1402V30.2749Z" fill="white"/>
<path d="M28.5027 29.0937V29.6843H29.684H30.8652V30.8655V32.0468H31.4559H32.0465V31.4562V30.8655H33.8184H35.5902V33.228V35.5905H33.2277H30.8652V36.1812V36.7718H33.8184H36.7715V36.1812V35.5905H37.9527H39.134V33.8187V32.0468H40.3152H41.4965V31.4562V30.8655H39.7246H37.9527V32.6374V34.4093H37.3621H36.7715V32.0468V29.6843H34.409H32.0465V29.0937V28.503H30.2746H28.5027V29.0937Z" fill="white"/>
<path d="M37.9527 29.0937V29.6843H39.7246H41.4965V29.0937V28.5031H39.7246H37.9527V29.0937Z" fill="white"/>
<path d="M42.6777 31.4562V32.0468H43.2684H43.859V31.4562V30.8656H43.2684H42.6777V31.4562Z" fill="white"/>
<path d="M33.2277 32.6374V33.2281H32.0465H30.8652V33.8187V34.4093H32.6371H34.409V33.2281V32.0468H33.8184H33.2277V32.6374Z" fill="white"/>
<path d="M26.3248 35.7751C25.9557 36.1369 26.2141 36.7718 26.7309 36.7718C26.8711 36.7718 27.0262 36.7053 27.1369 36.5872C27.255 36.4765 27.3215 36.3214 27.3215 36.1812C27.3215 36.0409 27.255 35.8859 27.1369 35.7751C27.0262 35.657 26.8711 35.5905 26.7309 35.5905C26.5906 35.5905 26.4355 35.657 26.3248 35.7751Z" fill="white"/>
<path d="M42.8623 35.7751C42.4932 36.1369 42.7516 36.7718 43.2684 36.7718C43.5711 36.7718 43.859 36.4839 43.859 36.1812C43.859 35.8785 43.5711 35.5905 43.2684 35.5905C43.1281 35.5905 42.973 35.657 42.8623 35.7751Z" fill="white"/>
<path d="M21.4152 39.1343V41.4968H23.7777H26.1402V40.9062V40.3156H24.3684H22.5965V38.5437V36.7718H22.0059H21.4152V39.1343Z" fill="white"/>
<path d="M47.4027 38.5437V40.3156H45.6309H43.859V40.9062V41.4968H46.2215H48.584V39.1343V36.7718H47.9934H47.4027V38.5437Z" fill="white"/>
<path d="M21.4152 43.2687V43.8593H27.9121H34.409V43.2687V42.6781H27.9121H21.4152V43.2687Z" fill="white"/>
<path d="M35.5902 43.2687V43.8593H36.1809H36.7715V43.2687V42.6781H36.1809H35.5902V43.2687Z" fill="white"/>
<path d="M37.9527 43.2687V43.8593H43.2684H48.584V43.2687V42.6781H43.2684H37.9527V43.2687Z" fill="white"/>
<path d="M21.4152 45.6312V46.2218H27.9121H34.409V45.6312V45.0406H27.9121H21.4152V45.6312Z" fill="white"/>
<path d="M35.5902 45.6312V46.2218H42.0871H48.584V45.6312V45.0406H42.0871H35.5902V45.6312Z" fill="white"/>
<path d="M21.4152 49.1749V50.9468H23.1871H24.959V49.1749V47.403H23.1871H21.4152V49.1749ZM23.7777 49.1749V49.7655H23.1871H22.5965V49.1749V48.5843H23.1871H23.7777V49.1749Z" fill="white"/>
<path d="M26.1402 49.1749V50.9468H27.9121H29.684V49.1749V47.403H27.9121H26.1402V49.1749ZM28.5027 49.1749V49.7655H27.9121H27.3215V49.1749V48.5843H27.9121H28.5027V49.1749Z" fill="white"/>
<path d="M30.8652 49.1749V50.9468H32.6371H34.409V49.1749V47.403H32.6371H30.8652V49.1749ZM33.2277 49.1749V49.7655H32.6371H32.0465V49.1749V48.5843H32.6371H33.2277V49.1749Z" fill="white"/>
</g>
<defs>
<clipPath id="clip0_2_170">
<rect width="37.8" height="37.8" fill="white" transform="translate(16.0996 16.0999)"/>
</clipPath>
</defs>
</svg>
