<svg width="70" height="70" viewBox="0 0 70 70" fill="none" xmlns="http://www.w3.org/2000/svg">
<circle cx="35" cy="35" r="35" fill="#4144E6"/>
<g clip-path="url(#clip0_2_114)">
<path d="M24.4053 16.7572C23.7408 16.9196 23.1355 17.4216 22.818 18.0565L22.6334 18.4257L22.6113 21.0983L22.5891 23.7708L20.5072 23.793C18.4621 23.8151 18.4178 23.8225 18.0561 23.9997C17.5836 24.2286 17.1406 24.6716 16.9117 25.1441L16.7272 25.5132V35.0001V44.487L16.9265 44.8635C17.2218 45.4246 17.4433 45.6535 17.9601 45.9341L18.4252 46.1851L24.6489 46.2072L30.8653 46.2294V46.9603C30.8653 47.6616 30.8579 47.6985 30.7028 47.7355C30.6069 47.7576 30.2673 47.8241 29.9424 47.8905C27.1369 48.4516 25.6973 49.6328 26.2805 50.9101C26.753 51.9584 28.7242 52.7484 31.8398 53.1397C33.213 53.3095 36.7863 53.3095 38.1595 53.1397C41.814 52.6746 43.859 51.6779 43.859 50.3564C43.859 49.4926 42.9731 48.7469 41.3489 48.2301C40.7508 48.0382 40.4112 47.9569 39.3038 47.7281C39.1414 47.6985 39.134 47.6616 39.134 46.9603V46.2294L45.3577 46.2072L51.574 46.1851L52.0392 45.9341C52.556 45.6535 52.7774 45.4246 53.0728 44.8635L53.2721 44.487V35.0001V25.5132L53.0211 25.0481C52.7405 24.5313 52.5117 24.3098 51.9506 24.0145L51.574 23.8151L49.4921 23.793L47.4101 23.7708L47.388 21.0983L47.3658 18.4257L47.1665 18.0492C46.8712 17.4881 46.6497 17.2592 46.1329 16.9787L45.6678 16.7276L35.1473 16.7129C29.3592 16.7129 24.5308 16.7276 24.4053 16.7572ZM45.6752 18.0639C46.1624 18.4257 46.1846 18.4921 46.2067 20.0204L46.2289 21.4157H35.007H23.7778V20.1311C23.7778 18.7948 23.8221 18.5512 24.0952 18.2485C24.457 17.8572 23.918 17.8794 35.0882 17.8941C45.4463 17.9089 45.4758 17.9089 45.6752 18.0639ZM46.2215 27.322V32.047H44.4496H42.6778V31.6335C42.6778 30.9912 42.5449 30.6516 42.124 30.2382C41.6073 29.7214 41.4448 29.6845 39.5474 29.6845H37.9528V28.2227C37.9528 27.0931 37.9232 26.6797 37.842 26.4213C37.7165 26.0595 37.2514 25.5353 36.9339 25.4098C36.8232 25.3655 35.6198 24.989 34.2614 24.583C31.3673 23.7044 31.0646 23.6601 30.4592 24.0366C30.1934 24.1991 30.0384 24.3689 29.8907 24.6568L29.684 25.0481V27.7723V30.4966L28.8867 30.8953C28.4215 31.1241 27.9786 31.4121 27.8162 31.5745C27.351 32.0544 27.3215 32.2463 27.3215 34.6457V36.772H33.2278H39.134V37.3626V37.9532L31.8324 37.9385C24.5825 37.9163 24.5234 37.9163 24.3241 37.7613C24.2133 37.6801 24.0509 37.5176 23.9697 37.4069C23.8147 37.2076 23.8147 37.1485 23.7925 29.8986L23.7778 22.597H34.9996H46.2215V27.322ZM22.6113 31.1758L22.6334 37.3995L22.8328 37.776C23.1281 38.3371 23.3496 38.566 23.8664 38.8465L24.3315 39.0976L31.7364 39.1197L39.134 39.1345V39.7251V40.3157H28.5028H17.8715V33.1249C17.8715 28.2079 17.8937 25.8602 17.9527 25.7199C17.997 25.6092 18.1004 25.432 18.189 25.336C18.5064 24.989 18.6689 24.9669 20.6917 24.9595H22.5891L22.6113 31.1758ZM33.966 25.7347C35.9003 26.3179 36.5426 26.5394 36.6386 26.6575C36.7346 26.7757 36.7715 26.9528 36.7715 27.2851V27.7502L33.8184 27.0119L30.8653 26.2736V25.7642C30.8653 25.2253 31.0055 24.9595 31.2935 24.9595C31.3599 24.9595 32.5633 25.3065 33.966 25.7347ZM51.5814 25.1514C51.6922 25.2326 51.8546 25.3951 51.9358 25.5058C52.0908 25.7051 52.0908 25.7273 52.0908 35.0001C52.0908 44.2729 52.0908 44.2951 51.9358 44.4944C51.8546 44.6051 51.6922 44.7676 51.5814 44.8488L51.3821 45.0038H34.9996H18.6172L18.4178 44.8488C17.9306 44.487 17.9084 44.4206 17.8863 42.8923L17.8641 41.497H31.0277H44.1912L45.6456 42.9514L47.1074 44.4132L49.3075 42.2131L51.5002 40.0204L48.6947 37.2149L45.8893 34.4095L47.0705 33.2282L48.2518 32.047H47.8236H47.4028V28.5032V24.9521L49.3887 24.9742C51.264 24.9964 51.3895 25.0038 51.5814 25.1514ZM36.7715 29.3227V29.6845H36.3581C36.1292 29.6845 35.8044 29.7214 35.6346 29.7731C35.2285 29.8912 34.6157 30.504 34.4976 30.91C34.4385 31.1167 34.409 31.8993 34.409 33.4054V35.5907H33.8184H33.2278V33.2651C33.2278 31.3235 33.2056 30.8879 33.1096 30.659C32.7848 29.8838 31.9358 29.5073 31.1458 29.7878L30.8653 29.8912V28.6878V27.4844L33.8184 28.2227L36.7715 28.961V29.3227ZM31.9136 30.9912C31.9948 31.0651 32.0465 31.2127 32.0465 31.3973V31.6778L30.2746 32.5638L28.5028 33.4497V33.0363C28.5028 32.8148 28.5397 32.5638 28.5766 32.4826C28.6578 32.3423 31.4633 30.8805 31.67 30.8731C31.729 30.8657 31.8398 30.9174 31.9136 30.9912ZM41.3119 31.0503C41.467 31.198 41.4965 31.3013 41.4965 31.6409V32.047H40.3153H39.134V33.8189V35.5907H38.5434H37.9528V33.8189V32.047H37.3621H36.7715V33.8189V35.5907H36.1809H35.5903V33.4128V31.2275L35.7748 31.0503L35.952 30.8657H38.5434H41.1348L41.3119 31.0503ZM32.0465 34.2987V35.5907H30.2746H28.5028V35.1847V34.7786L30.2599 33.9001C31.2196 33.4128 32.017 33.0141 32.0317 33.0141C32.0391 33.0067 32.0465 33.59 32.0465 34.2987ZM44.7819 33.8189L44.1912 34.4095L46.9967 37.2149L49.8022 40.0204L48.4511 41.3641L47.1074 42.7151L44.302 39.9097L41.4965 37.1042L40.9059 37.6948L40.3153 38.2855V35.7532V33.2282H42.8402H45.3725L44.7819 33.8189ZM42.2717 39.5774L43.01 40.3157H41.4965H39.983L40.7213 39.5774C41.1274 39.1714 41.4744 38.8392 41.4965 38.8392C41.5187 38.8392 41.8657 39.1714 42.2717 39.5774ZM37.9528 47.9939V49.7657H34.9996H32.0465V47.9939V46.222H34.9996H37.9528V47.9939ZM34.9996 50.947H39.134V49.9208V48.8946L39.7468 49.0274C41.4227 49.3966 42.6778 49.9724 42.6778 50.3859C42.6778 50.7476 41.1421 51.4121 39.6139 51.7148C38.1078 52.0101 37.2145 52.0839 34.9996 52.0839C32.7848 52.0839 31.8915 52.0101 30.3854 51.7148C29.0712 51.4564 27.5947 50.8584 27.3732 50.4966C27.1222 50.0832 28.4068 49.4261 30.2008 49.0422L30.8283 48.9019L30.8505 49.9282L30.8726 50.947H34.9996Z" fill="white"/>
<path d="M24.959 19.6439V20.2345H25.5496H26.1402V19.6439V19.0532H25.5496H24.959V19.6439Z" fill="white"/>
<path d="M27.3215 19.6439V20.2345H27.9122H28.5028V19.6439V19.0532H27.9122H27.3215V19.6439Z" fill="white"/>
<path d="M29.684 19.6439V20.2345H30.2746H30.8653V19.6439V19.0532H30.2746H29.684V19.6439Z" fill="white"/>
<path d="M31.4559 43.2689V43.8595H32.0465H32.6371V43.2689V42.6782H32.0465H31.4559V43.2689Z" fill="white"/>
<path d="M33.8184 43.2689V43.8595H34.9996H36.1809V43.2689V42.6782H34.9996H33.8184V43.2689Z" fill="white"/>
<path d="M37.3621 43.2689V43.8595H37.9527H38.5434V43.2689V42.6782H37.9527H37.3621V43.2689Z" fill="white"/>
</g>
<defs>
<clipPath id="clip0_2_114">
<rect width="37.8" height="37.8" fill="white" transform="translate(16.0996 16.1001)"/>
</clipPath>
</defs>
</svg>
