<svg width="70" height="70" viewBox="0 0 70 70" fill="none" xmlns="http://www.w3.org/2000/svg">
<circle cx="35" cy="35" r="35" fill="#4144E6"/>
<g clip-path="url(#clip0_2_99)">
<path d="M21.3119 16.7719C20.8542 16.8827 20.1823 17.274 19.8575 17.6283C19.6951 17.8055 19.4514 18.1747 19.3259 18.4478L19.0897 18.9425L19.0675 29.4999L19.0528 40.0573L18.7944 40.2345C18.3957 40.5077 17.7165 41.2681 17.4064 41.7997C17.2514 42.0581 17.0446 42.538 16.9339 42.8628C16.7641 43.387 16.7419 43.5715 16.7419 44.4501C16.7419 45.3287 16.7641 45.5132 16.9339 46.0374C17.0446 46.3623 17.2514 46.8421 17.4064 47.1005C17.7165 47.6321 18.3957 48.3925 18.7944 48.6657L19.0528 48.8429V51.0725V53.3095H34.9996H50.9465V44.5756V35.8417L51.1532 35.7162C51.4928 35.5243 52.2902 34.631 52.5929 34.1068C52.7479 33.8484 52.9546 33.3685 53.0654 33.0437C53.2352 32.5195 53.2573 32.3349 53.2573 31.4564C53.2573 30.5778 53.2352 30.3932 53.0654 29.869C52.9546 29.5442 52.7479 29.0643 52.5929 28.8059C52.2902 28.2891 51.4928 27.3884 51.1606 27.1965L50.9539 27.071L50.9317 23.0104L50.9096 18.9425L50.6733 18.4478C50.3485 17.7612 49.9351 17.333 49.2632 17.0008L48.7021 16.7276L35.1547 16.7129C27.1369 16.7129 21.4817 16.735 21.3119 16.7719ZM48.5397 17.9606C48.9458 18.0787 49.5585 18.6915 49.6767 19.0975C49.7357 19.2969 49.7653 19.9613 49.7653 21.0023V22.597H42.0871H34.409V21.4157V20.2345H32.6371H30.8653V21.4157V22.597H30.2746H29.684V21.4157V20.2345H27.9121H26.1403V21.4157V22.597H25.5496H24.959V21.4157V20.2345H23.1871H21.4153V21.4157V22.597H20.8246H20.234V21.0023C20.234 19.9613 20.2635 19.2969 20.3226 19.0975C20.4333 18.721 21.0535 18.0861 21.4153 17.968C21.8066 17.8424 48.1263 17.8424 48.5397 17.9606ZM23.7778 22.0064V22.597H23.1871H22.5965V22.0064V21.4157H23.1871H23.7778V22.0064ZM28.5028 22.0064V22.597H27.9121H27.3215V22.0064V21.4157H27.9121H28.5028V22.0064ZM33.2278 22.0064V22.597H32.6371H32.0465V22.0064V21.4157H32.6371H33.2278V22.0064ZM49.7653 25.1145C49.7653 26.3548 49.7579 26.4508 49.6398 26.3991C49.3592 26.2958 48.3994 26.1407 47.9934 26.1407C47.0336 26.1407 45.8893 26.4877 45.1141 27.0119L44.708 27.2851L34.6157 27.322C24.5677 27.3589 24.5234 27.3589 24.3241 27.5139C24.2133 27.5951 24.0509 27.7576 23.9697 27.8683C23.8147 28.0676 23.8147 28.1636 23.7925 32.4014C23.7778 35.3471 23.7925 36.8237 23.8516 37.0082C24.0952 37.8573 25.0919 38.2042 25.8449 37.7022C26.0738 37.5546 26.2215 37.3331 26.6128 36.5579L27.1074 35.5907H35.8856H44.6637L45.0772 35.8787C45.8376 36.4176 47.0262 36.772 48.0155 36.772C48.4142 36.772 49.2189 36.6391 49.625 36.5136C49.7579 36.4693 49.7653 36.6982 49.7653 44.2951V52.1282H34.9996H20.234V50.7919C20.234 49.5516 20.2414 49.4557 20.3669 49.5073C20.6401 49.6107 21.5998 49.7657 22.0059 49.7657C22.973 49.7657 24.0805 49.4335 24.9221 48.8798L25.3724 48.5845H34.1358H42.8919L43.3865 49.5516C43.7778 50.3268 43.9255 50.5483 44.1543 50.696C44.9074 51.198 45.904 50.851 46.1477 50.002C46.2067 49.8174 46.2215 48.3408 46.2067 45.3951C46.1846 41.1574 46.1846 41.0614 46.0296 40.8621C45.9483 40.7513 45.7859 40.5889 45.6752 40.5077C45.4758 40.3526 45.4315 40.3526 35.3835 40.3157L25.2912 40.2788L24.8852 40.0056C24.11 39.4815 22.9657 39.1345 22.0059 39.1345C21.5998 39.1345 20.6401 39.2895 20.3595 39.3929C20.2414 39.4446 20.234 39.0459 20.234 31.6114V23.7782H34.9996H49.7653V25.1145ZM48.776 27.4032C49.4995 27.5287 50.3264 27.979 50.9022 28.5475C52.2311 29.8764 52.4895 31.8255 51.5667 33.5309C51.2566 34.0846 51.2197 34.0994 50.9539 33.6786C50.7176 33.3168 50.2747 32.8665 49.9129 32.6228C49.7579 32.5195 49.7431 32.4826 49.8169 32.3644C50.223 31.7664 50.3116 31.4933 50.3116 30.8657C50.3116 30.3342 50.2821 30.1791 50.1196 29.8617C49.8243 29.308 49.6028 29.0717 49.086 28.7912C48.6578 28.5623 48.5692 28.5401 47.9934 28.5475C47.2551 28.5475 46.8121 28.7247 46.3323 29.2046C45.8524 29.6845 45.6752 30.1274 45.6752 30.8657C45.6752 31.4933 45.7638 31.7664 46.1698 32.3644C46.2437 32.4826 46.2289 32.5195 46.0739 32.6228C45.7121 32.8665 45.2691 33.3168 45.0329 33.6786C44.7671 34.0994 44.7302 34.0846 44.4201 33.5309C43.4973 31.8329 43.7557 29.8764 45.0772 28.5623C46.0665 27.573 47.3954 27.1522 48.776 27.4032ZM43.261 29.0717C42.8402 29.906 42.7221 30.4523 42.7221 31.4564C42.7221 32.453 42.8402 32.992 43.261 33.8336L43.5415 34.4095H34.9553H26.3617L25.7711 35.5981C25.4094 36.3069 25.1362 36.772 25.0845 36.7498C25.0181 36.7277 24.9885 35.7458 24.9738 32.6155L24.959 28.5032H34.254H43.5489L43.261 29.0717ZM48.4585 29.7878C49.2189 30.1053 49.4035 31.0946 48.8129 31.6852C47.986 32.5195 46.6276 31.7738 46.8417 30.6073C46.9746 29.9133 47.7867 29.4999 48.4585 29.7878ZM49.0048 33.4719C49.4626 33.7081 49.8539 34.0846 50.0606 34.4833C50.2673 34.882 50.2525 34.9558 49.9351 35.1035C49.086 35.5169 48.0967 35.6719 47.3289 35.5317C46.8121 35.4357 46.1329 35.1773 45.9114 35.0075L45.749 34.8672L45.8893 34.5645C46.1329 34.0182 46.7309 33.5162 47.4028 33.2947C47.7719 33.1692 48.5988 33.2651 49.0048 33.4719ZM22.7885 40.3969C23.512 40.5224 24.3389 40.9728 24.9147 41.5413C26.2436 42.8702 26.502 44.8192 25.5792 46.5247C25.2691 47.0784 25.2322 47.0932 24.9664 46.6723C24.7301 46.3106 24.2872 45.8602 23.9254 45.6166C23.7704 45.5132 23.7556 45.4763 23.8294 45.3582C24.2355 44.7602 24.3241 44.487 24.3241 43.8595C24.3241 43.3279 24.2946 43.1729 24.1321 42.8554C23.8368 42.3017 23.6153 42.0655 23.0985 41.7849C22.6703 41.556 22.5817 41.5339 22.0059 41.5413C21.2676 41.5413 20.8246 41.7185 20.3448 42.1983C19.8649 42.6782 19.6877 43.1212 19.6877 43.8595C19.6877 44.487 19.7763 44.7602 20.1823 45.3582C20.2562 45.4763 20.2414 45.5132 20.0864 45.6166C19.7246 45.8602 19.2816 46.3106 19.0454 46.6723C18.7796 47.0932 18.7427 47.0784 18.4326 46.5247C17.5098 44.8192 17.7682 42.8702 19.0971 41.5413C20.0864 40.5594 21.4079 40.1459 22.7885 40.3969ZM45.0255 45.6092C45.0107 48.7395 44.9812 49.7214 44.9148 49.7436C44.8631 49.7657 44.5899 49.3006 44.2282 48.5919L43.6375 47.4032H35.0439H26.4577L26.7383 46.8274C27.1591 45.9857 27.2772 45.4468 27.2772 44.4501C27.2772 43.4534 27.1591 42.9145 26.7383 42.0655L26.4577 41.497H35.7453H45.0403L45.0255 45.6092ZM22.471 42.7816C23.2314 43.099 23.416 44.0883 22.8254 44.679C22.3455 45.1589 21.6663 45.1589 21.1864 44.679C20.2709 43.7709 21.2824 42.2796 22.471 42.7816ZM23.0173 46.4656C23.4751 46.7019 23.8664 47.0784 24.0731 47.4771C24.2798 47.8757 24.265 47.9496 23.9476 48.0972C23.0985 48.5107 22.1092 48.6657 21.3414 48.5254C20.8246 48.4294 20.1454 48.171 19.9239 48.0012L19.7615 47.861L19.9018 47.5583C20.1454 47.0119 20.7434 46.5099 21.4153 46.2884C21.7844 46.1629 22.6113 46.2589 23.0173 46.4656Z" fill="white"/>
<path d="M28.5027 29.7805C28.141 29.8986 27.5208 30.5335 27.4101 30.91C27.2034 31.604 27.351 32.1577 27.8752 32.6745C28.2517 33.0584 28.6283 33.2282 29.0934 33.2282C29.5585 33.2282 29.935 33.0584 30.3115 32.6745C31.035 31.9584 31.0572 31.0355 30.3706 30.2751C29.8907 29.7436 29.2041 29.559 28.5027 29.7805ZM29.4994 31.0503C29.8686 31.4121 29.6102 32.047 29.0934 32.047C28.7907 32.047 28.5027 31.7591 28.5027 31.4564C28.5027 31.1537 28.7907 30.8657 29.0934 30.8657C29.2336 30.8657 29.3887 30.9322 29.4994 31.0503Z" fill="white"/>
<path d="M33.2278 29.7805C32.866 29.8986 32.2459 30.5335 32.1351 30.91C31.9284 31.604 32.0761 32.1577 32.6002 32.6745C32.9768 33.0584 33.3533 33.2282 33.8184 33.2282C34.2835 33.2282 34.66 33.0584 35.0366 32.6745C35.7601 31.9584 35.7822 31.0355 35.0956 30.2751C34.6157 29.7436 33.9291 29.559 33.2278 29.7805ZM34.2245 31.0503C34.5936 31.4121 34.3352 32.047 33.8184 32.047C33.5157 32.047 33.2278 31.7591 33.2278 31.4564C33.2278 31.1537 33.5157 30.8657 33.8184 30.8657C33.9587 30.8657 34.1137 30.9322 34.2245 31.0503Z" fill="white"/>
<path d="M37.9528 29.7805C37.591 29.8986 36.9708 30.5335 36.8601 30.91C36.6534 31.604 36.801 32.1577 37.3252 32.6745C37.7017 33.0584 38.0783 33.2282 38.5434 33.2282C39.0085 33.2282 39.385 33.0584 39.7615 32.6745C40.4851 31.9584 40.5072 31.0355 39.8206 30.2751C39.3407 29.7436 38.6541 29.559 37.9528 29.7805ZM38.9494 31.0503C39.0676 31.1611 39.134 31.3161 39.134 31.4564C39.134 31.5966 39.0676 31.7517 38.9494 31.8624C38.8387 31.9805 38.6837 32.047 38.5434 32.047C38.4031 32.047 38.2481 31.9805 38.1373 31.8624C38.0192 31.7517 37.9528 31.5966 37.9528 31.4564C37.9528 31.3161 38.0192 31.1611 38.1373 31.0503C38.2481 30.9322 38.4031 30.8657 38.5434 30.8657C38.6837 30.8657 38.8387 30.9322 38.9494 31.0503Z" fill="white"/>
<path d="M30.8653 42.7742C30.5035 42.8923 29.8834 43.5273 29.7726 43.9038C29.5659 44.5978 29.7136 45.1515 30.2378 45.6683C30.9834 46.4213 31.9284 46.4213 32.6741 45.6683C33.3976 44.9521 33.4197 44.0293 32.7331 43.2689C32.2533 42.7373 31.5667 42.5527 30.8653 42.7742ZM31.862 44.0441C31.9801 44.1548 32.0465 44.3098 32.0465 44.4501C32.0465 44.5904 31.9801 44.7454 31.862 44.8562C31.7512 44.9743 31.5962 45.0407 31.4559 45.0407C31.3156 45.0407 31.1606 44.9743 31.0499 44.8562C30.9317 44.7454 30.8653 44.5904 30.8653 44.4501C30.8653 44.3098 30.9317 44.1548 31.0499 44.0441C31.1606 43.9259 31.3156 43.8595 31.4559 43.8595C31.5962 43.8595 31.7512 43.9259 31.862 44.0441Z" fill="white"/>
<path d="M35.5903 42.7742C35.2285 42.8923 34.6084 43.5273 34.4976 43.9038C34.2909 44.5978 34.4385 45.1515 34.9627 45.6683C35.7084 46.4213 36.6534 46.4213 37.3991 45.6683C38.1226 44.9521 38.1447 44.0293 37.4581 43.2689C36.9782 42.7373 36.2916 42.5527 35.5903 42.7742ZM36.5869 44.0441C36.9561 44.4058 36.6977 45.0407 36.1809 45.0407C35.8782 45.0407 35.5903 44.7528 35.5903 44.4501C35.5903 44.1474 35.8782 43.8595 36.1809 43.8595C36.3212 43.8595 36.4762 43.9259 36.5869 44.0441Z" fill="white"/>
<path d="M40.3152 42.7742C39.9535 42.8923 39.3333 43.5273 39.2226 43.9038C39.0159 44.5978 39.1635 45.1515 39.6877 45.6683C40.4334 46.4213 41.3784 46.4213 42.124 45.6683C42.8475 44.9521 42.8697 44.0293 42.1831 43.2689C41.7032 42.7373 41.0166 42.5527 40.3152 42.7742ZM41.3119 44.0441C41.6811 44.4058 41.4227 45.0407 40.9059 45.0407C40.6032 45.0407 40.3152 44.7528 40.3152 44.4501C40.3152 44.1474 40.6032 43.8595 40.9059 43.8595C41.0461 43.8595 41.2012 43.9259 41.3119 44.0441Z" fill="white"/>
</g>
<defs>
<clipPath id="clip0_2_99">
<rect width="37.8" height="37.8" fill="white" transform="translate(16.0996 16.1001)"/>
</clipPath>
</defs>
</svg>
