<svg width="70" height="70" viewBox="0 0 70 70" fill="none" xmlns="http://www.w3.org/2000/svg">
<circle cx="35" cy="35" r="35" fill="#4144E6"/>
<g clip-path="url(#clip0_2_206)">
<path d="M33.7667 16.2108C31.2122 16.6759 29.1229 18.3961 28.1631 20.8325C27.949 21.3936 27.6906 22.597 27.6906 23.0695V23.4091H23.9475C19.8796 23.4091 19.5548 23.4386 18.8903 23.8151C18.3809 24.1031 17.8863 24.6346 17.6205 25.1809L17.3916 25.6608L17.3695 36.7129L17.3547 47.7724H16.7271H16.0996V49.4556C16.0996 51.2349 16.1587 51.6631 16.4761 52.2906C16.6902 52.7188 17.2144 53.2504 17.6352 53.4793C18.4621 53.9296 17.3473 53.9001 34.9996 53.9001C52.4304 53.9001 51.515 53.9222 52.2902 53.5236C52.7184 53.3095 53.2499 52.7853 53.4788 52.3645C53.8405 51.7 53.8996 51.2866 53.8996 49.4556V47.7724H53.2721H52.6445L52.6298 36.7129L52.6076 25.6608L52.3787 25.1809C52.113 24.6346 51.6183 24.1031 51.1089 23.8151C50.4445 23.4386 50.1196 23.4091 46.0591 23.4091H42.3086V23.0695C42.3086 22.597 42.0502 21.3936 41.8361 20.8325C40.5441 17.5545 37.1332 15.5981 33.7667 16.2108ZM36.7346 17.5766C38.8461 18.2485 40.3374 19.821 40.9132 21.9694C41.0609 22.5084 41.0757 22.7594 41.083 24.8118L41.0904 27.0636L40.485 27.0857L39.887 27.1079L39.8575 24.797C39.8206 22.2795 39.8058 22.1761 39.3407 21.2311C38.5507 19.6217 36.801 18.5364 34.9996 18.5364C33.1982 18.5364 31.4485 19.6217 30.6585 21.2311C30.1565 22.2426 30.1713 22.0949 30.1417 26.3622L30.1196 30.2382L29.5659 30.5335C29.2558 30.6959 28.9752 30.8436 28.9309 30.8583C28.8866 30.8731 28.8719 29.4556 28.8866 26.724C28.9162 22.7151 28.9236 22.5379 29.0786 21.9694C29.5806 20.1532 30.6954 18.7727 32.3049 17.9679C33.2942 17.4733 33.87 17.3552 35.1842 17.3847C36.0037 17.4068 36.3285 17.4438 36.7346 17.5766ZM36.0406 19.9318C36.6534 20.1385 37.0004 20.3378 37.4138 20.707C38.0782 21.305 38.5064 22.1171 38.6098 22.9809L38.6615 23.4091H34.9996H31.3377L31.3894 22.9809C31.5592 21.5707 32.4968 20.4412 33.9291 19.9318C34.4459 19.7472 35.509 19.7472 36.0406 19.9318ZM27.6906 25.2548V25.8454H24.2355C20.8025 25.8454 20.7803 25.8454 20.4555 26.0078C20.2709 26.1038 20.0494 26.2884 19.9608 26.4286L19.791 26.6797V37.2223V47.7724H19.1635H18.5359L18.5507 36.8606L18.5729 25.9561L18.7353 25.6534C18.9272 25.2843 19.4366 24.834 19.7541 24.7454C19.8722 24.7084 21.7105 24.6715 23.8368 24.6715L27.6906 24.6641V25.2548ZM38.691 25.2548V25.8454H34.9996H31.3082V25.2548V24.6641H34.9996H38.691V25.2548ZM50.2156 24.738C50.5626 24.834 51.0572 25.2695 51.2639 25.6534L51.4264 25.9561L51.4485 36.8606L51.4633 47.7724H50.8357H50.2082V37.2223V26.6797L50.0384 26.4286C49.9498 26.2884 49.7283 26.1038 49.5438 26.0078C49.2189 25.8454 49.1968 25.8454 45.7638 25.8454H42.3086V25.2548V24.6641H46.1329C48.4216 24.6641 50.0532 24.6937 50.2156 24.738ZM27.6759 29.3301L27.6537 31.5597L27.0483 31.8845C26.5094 32.1651 26.4355 32.2315 26.4355 32.4013C26.4429 33.8705 26.7382 35.9008 27.1369 37.2149C28.2739 41.0023 30.8505 44.2655 34.2613 46.2515L34.9996 46.6797L35.7379 46.2515C39.6803 43.9628 42.4193 40.0573 43.261 35.539C43.3865 34.8672 43.5637 33.0732 43.5637 32.4087C43.5637 32.2241 43.2757 32.0543 39.2816 29.9059L34.9996 27.6025L33.2056 28.5697C32.2163 29.1012 31.382 29.5368 31.3599 29.5368C31.3304 29.5368 31.3082 28.9905 31.3082 28.3186V27.1005H34.9996H38.691V27.6911V28.2817H40.4998H42.3086V27.6911V27.1005H45.6678H49.027V37.4364V47.7724H34.9996H20.9723V37.4364V27.1005H24.3314H27.6906L27.6759 29.3301ZM38.6615 30.9543C40.6401 32.0248 42.2717 32.9477 42.2938 32.9993C42.3529 33.1618 42.1831 34.7712 42.0059 35.6202C41.6737 37.274 40.8542 39.26 39.9018 40.6849C38.7722 42.3829 37.2366 43.8816 35.5533 44.9374L34.9996 45.277L34.4459 44.9374C30.6585 42.5749 28.2074 38.566 27.7497 33.9739C27.6906 33.3906 27.6832 33.0363 27.7275 32.9624C27.8088 32.8517 34.8298 29.0348 34.9775 29.0274C35.0291 29.02 36.6829 29.8912 38.6615 30.9543ZM29.5363 49.5221C29.5437 50.3194 29.8833 50.9174 30.533 51.2644C30.8283 51.4268 30.8652 51.4268 34.9996 51.4268C39.134 51.4268 39.1709 51.4268 39.4662 51.2644C40.1159 50.9174 40.4555 50.3194 40.4629 49.5221V49.0274H46.5611H52.6519L52.6298 50.2308C52.6076 51.4268 52.6076 51.4416 52.3861 51.8034C52.2459 52.0249 52.0244 52.2463 51.8029 52.3866L51.4411 52.6081H34.9996H18.5581L18.1963 52.3866C17.9748 52.2463 17.7534 52.0249 17.6131 51.8034C17.3916 51.4416 17.3916 51.4268 17.3695 50.2308L17.3473 49.0274H23.4381H29.5363V49.5221ZM39.2816 49.3597C39.2816 49.7362 39.134 50.0906 38.9494 50.1644C38.787 50.2234 31.2122 50.2234 31.0498 50.1644C30.8652 50.0906 30.7176 49.7362 30.7176 49.3597V49.0274H34.9996H39.2816V49.3597Z" fill="white"/>
<path d="M34.409 31.3382V31.9584L33.7667 31.9879C32.9767 32.0174 32.5411 32.202 32.0317 32.7262C31.131 33.649 31.1532 35.1994 32.0686 36.0927C32.7257 36.7277 33.1982 36.8458 35.1251 36.8458C36.6607 36.8458 36.8527 36.8901 37.1775 37.3183C37.6279 37.9089 37.4359 38.7653 36.7715 39.1123C36.4688 39.2747 36.3728 39.2821 35.0144 39.2821C33.7076 39.2821 33.5378 39.2674 33.2573 39.1271C32.9177 38.9647 32.6666 38.6398 32.5928 38.2559L32.5485 38.027H31.9653H31.382V38.2854C31.382 38.721 31.6626 39.3264 32.0317 39.7103C32.5411 40.2345 32.9767 40.4191 33.7667 40.4486L34.409 40.4781V41.0983V41.7184H34.9996H35.5902V41.0983V40.4781L36.2399 40.4486C37.0225 40.4191 37.4581 40.2345 37.9675 39.7103C38.8682 38.7875 38.8461 37.2371 37.9306 36.3438C37.2735 35.7088 36.801 35.5907 34.8741 35.5907C33.3459 35.5907 33.1465 35.5464 32.8217 35.1182C32.4009 34.5645 32.5559 33.7229 33.1391 33.3611C33.3975 33.1987 33.5009 33.1913 34.8224 33.1691C35.6936 33.1544 36.3507 33.1765 36.5352 33.2208C36.9265 33.3316 37.2735 33.6786 37.3769 34.0846L37.4655 34.4095H38.0413H38.6172V34.1511C38.6172 33.7155 38.3366 33.1101 37.9675 32.7262C37.4581 32.202 37.0225 32.0174 36.2399 31.9879L35.5902 31.9584V31.3382V30.7181H34.9996H34.409V31.3382Z" fill="white"/>
</g>
<defs>
<clipPath id="clip0_2_206">
<rect width="37.8" height="37.8" fill="white" transform="translate(16.0996 16.1001)"/>
</clipPath>
</defs>
</svg>
