<svg width="70" height="70" viewBox="0 0 70 70" fill="none" xmlns="http://www.w3.org/2000/svg">
<circle cx="35" cy="35" r="35" fill="#4144E6"/>
<g clip-path="url(#clip0_2_154)">
<path opacity="0.944" fill-rule="evenodd" clip-rule="evenodd" d="M40.9428 16.0632C41.435 16.0632 41.9271 16.0632 42.4193 16.0632C43.227 16.2582 43.9161 16.6643 44.4865 17.2813C46.2998 17.05 47.6902 17.7021 48.6578 19.2378C48.8424 19.004 49.027 18.7702 49.2115 18.5364C50.4171 18.4995 51.623 18.4872 52.8291 18.4995C52.4703 20.1069 52.0766 21.7065 51.6479 23.2983C52.1931 23.3431 52.7345 23.4046 53.2721 23.4829C53.5486 23.6573 53.7454 23.891 53.8627 24.1843C53.8627 24.8733 53.8627 25.5624 53.8627 26.2515C53.6731 26.6253 53.3778 26.8837 52.9768 27.0266C52.2143 27.0636 51.4514 27.0758 50.6881 27.0636C50.6247 27.4895 50.5263 27.9079 50.3928 28.3186C51.4517 29.0231 51.7101 29.9583 51.168 31.1241C50.9384 31.418 50.6555 31.6518 50.3189 31.8255C49.6343 31.9155 48.9452 31.9648 48.2518 31.9731C47.5258 32.9944 46.7998 34.0157 46.0738 35.037C45.7459 35.3302 45.3644 35.5147 44.9295 35.5907C41.8288 35.6276 38.728 35.64 35.6271 35.6276C35.6395 38.4824 35.6271 41.3371 35.5902 44.1917C35.4764 44.6992 35.1933 45.0807 34.7412 45.336C34.9848 45.7123 35.1571 46.1184 35.258 46.5542C35.7803 46.5147 36.2971 46.49 36.8084 46.4804C37.2303 45.0867 38.1654 44.2746 39.6139 44.044C40.6471 42.1862 42.2221 41.411 44.3389 41.7184C45.1669 41.8741 45.8806 42.2432 46.4799 42.8259C49.2199 42.7483 50.881 44.0403 51.4633 46.7018C52.7015 47.2381 53.5013 48.1486 53.8627 49.4335C53.8627 49.9503 53.8627 50.4671 53.8627 50.9839C53.4197 52.4604 52.46 53.4202 50.9834 53.8632C40.1307 53.8632 29.2779 53.8632 18.4252 53.8632C17.2193 53.494 16.4318 52.7065 16.0627 51.5007C16.0627 51.0331 16.0627 50.5655 16.0627 50.0979C16.4464 48.8162 17.2954 48.0288 18.6098 47.7354C19.6339 44.9034 21.6395 43.7344 24.6268 44.2286C25.0504 44.3452 25.4564 44.5052 25.8449 44.7085C27.5768 43.0175 29.6071 42.4761 31.9357 43.0843C30.413 40.5923 28.8626 38.1191 27.2846 35.6645C26.6201 35.6153 25.9557 35.6153 25.2912 35.6645C25.5198 35.9618 25.6798 36.2941 25.7711 36.6612C27.7556 37.0145 28.5431 38.1711 28.1336 40.1311C27.8071 40.9252 27.2288 41.4297 26.3986 41.6446C23.9869 41.6939 21.5752 41.6939 19.1635 41.6446C17.541 41.0699 16.9627 39.9502 17.4285 38.2854C17.8851 37.3015 18.6602 36.7601 19.7541 36.6612C19.8452 36.3137 19.9928 35.9938 20.1971 35.7015C19.5586 35.64 18.9188 35.6031 18.2775 35.5907C17.1383 35.4228 16.4 34.7953 16.0627 33.7081C16.0627 33.2897 16.0627 32.8714 16.0627 32.453C16.1738 32.1563 16.3091 31.861 16.4687 31.5671C17.207 30.3366 17.9453 29.1062 18.6836 27.8757C19.5148 26.7769 20.6099 26.1002 21.9689 25.8454C24.258 25.8331 26.5467 25.7962 28.835 25.7347C30.2838 23.3903 31.7604 21.0648 33.2646 18.7579C33.9223 18.394 34.5621 18.4186 35.1842 18.8317C35.5326 19.3261 35.7048 19.8798 35.701 20.4929C36.3716 19.9739 37.1344 19.7032 37.9896 19.6807C38.1099 17.7644 39.0943 16.5586 40.9428 16.0632ZM41.3119 17.3182C41.9197 17.2795 42.4857 17.4148 43.01 17.7243C43.3955 18.0727 43.74 18.4541 44.0436 18.8686C45.7474 18.1808 46.9532 18.673 47.6611 20.3452C47.2192 20.9346 46.7516 21.5006 46.2584 22.0432C45.5744 21.1299 44.6639 20.7731 43.5268 20.9727C42.8664 21.1428 42.3496 21.5119 41.9764 22.0802C40.2798 22.1023 39.3446 22.9513 39.1709 24.6272C39.6139 24.6272 40.0568 24.6272 40.4998 24.6272C40.5731 23.9141 40.9669 23.5203 41.6811 23.446C42.0274 23.4895 42.3596 23.588 42.6777 23.7413C42.7475 23.7114 42.7967 23.6622 42.8254 23.5936C42.9514 22.5304 43.5298 22.0998 44.5604 22.3016C44.9369 22.4991 45.183 22.8067 45.2986 23.2245C44.6113 24.094 43.8976 24.9431 43.1576 25.7716C40.6476 25.8085 38.1375 25.8208 35.6271 25.8085C35.6148 24.8484 35.6271 23.8887 35.6641 22.9292C36.0898 21.4718 37.0618 20.8443 38.5803 21.0466C38.8943 21.1436 39.2142 21.2051 39.54 21.2311C39.436 20.7287 39.3376 20.2242 39.2447 19.7177C39.3725 18.4217 40.0616 17.6219 41.3119 17.3182ZM34.0768 19.7546C34.1503 19.7482 34.2118 19.7729 34.2613 19.8284C34.2982 21.8216 34.3106 23.815 34.2982 25.8085C32.993 25.8331 31.6887 25.8085 30.3854 25.7347C31.6359 23.7496 32.8664 21.7562 34.0768 19.7546ZM49.876 19.7546C50.3217 19.7303 50.7646 19.7549 51.2049 19.8284C50.8862 21.0044 50.5909 22.1857 50.3189 23.3722C49.7278 23.3599 49.1372 23.3722 48.5471 23.4091C48.159 23.5756 47.9006 23.8587 47.7719 24.2581C47.704 24.9773 47.7285 25.6909 47.8457 26.3991C48.195 26.955 48.6995 27.1765 49.3592 27.0636C49.2893 27.4536 49.1909 27.8351 49.0639 28.2079C47.858 28.2325 46.6521 28.2571 45.4463 28.2817C44.3213 28.7013 43.8907 29.5011 44.1543 30.6811C44.6427 31.7193 45.4672 32.15 46.6275 31.9731C46.0975 32.7624 45.5315 33.5252 44.9295 34.2618C41.7792 34.3233 38.6292 34.311 35.4795 34.2249C35.2316 33.6694 34.8132 33.3126 34.2244 33.1544C32.2065 33.1051 30.1885 33.1051 28.1705 33.1544C27.6193 33.3241 27.2502 33.681 27.0631 34.2249C24.1103 34.311 21.1571 34.3233 18.2037 34.2618C17.2051 33.6834 17.0575 32.9328 17.7607 32.01C19.9012 31.9362 22.0422 31.9116 24.1838 31.9362C23.8885 30.7057 23.5932 29.4753 23.2979 28.2448C22.2394 28.2571 21.1812 28.2448 20.1232 28.2079C20.7406 27.6039 21.4788 27.2348 22.3381 27.1005C29.4994 27.0759 36.6607 27.0512 43.8221 27.0266C45.8557 24.612 47.8736 22.188 49.876 19.7546ZM48.99 24.6272C50.1959 24.6272 51.4018 24.6272 52.6076 24.6272C52.6076 25.021 52.6076 25.4148 52.6076 25.8085C51.4018 25.8085 50.1959 25.8085 48.99 25.8085C48.99 25.4148 48.99 25.021 48.99 24.6272ZM19.2373 29.4999C20.2475 29.4753 21.2565 29.5 22.2643 29.5737C22.3627 29.9183 22.4611 30.2628 22.5596 30.6073C21.2313 30.6934 19.9024 30.7057 18.5729 30.6442C18.8045 30.2668 19.026 29.8853 19.2373 29.4999ZM27.5061 29.4999C28.0852 29.5482 28.2945 29.8436 28.1336 30.3858C27.6498 30.7951 27.293 30.6966 27.0631 30.0905C27.1296 29.8278 27.2773 29.6309 27.5061 29.4999ZM32.3787 29.4999C32.9579 29.5482 33.1671 29.8436 33.0062 30.3858C32.5225 30.7951 32.1656 30.6966 31.9357 30.0905C32.0023 29.8278 32.1499 29.6309 32.3787 29.4999ZM37.2514 29.4999C37.8314 29.549 38.0406 29.8443 37.8789 30.3858C37.3738 30.8001 37.017 30.6893 36.8084 30.0536C36.8912 29.8114 37.0389 29.6269 37.2514 29.4999ZM45.8154 29.4999C46.4185 29.5736 46.603 29.8935 46.3691 30.4597C45.877 30.7862 45.5448 30.6631 45.3725 30.0905C45.3838 29.7846 45.5315 29.5878 45.8154 29.4999ZM47.735 29.4999C48.3999 29.4876 49.0643 29.4999 49.7283 29.5368C50.3189 29.9059 50.3189 30.2751 49.7283 30.6442C49.0643 30.6811 48.3999 30.6934 47.735 30.6811C47.8334 30.2874 47.8334 29.8936 47.735 29.4999ZM28.5396 34.3725C30.3117 34.3602 32.0835 34.3725 33.8553 34.4095C33.972 34.4617 34.0827 34.5232 34.1875 34.594C34.2974 37.7378 34.3343 40.8877 34.2982 44.044C34.0921 44.0476 33.9568 43.9492 33.8922 43.7487C32.0757 40.776 30.23 37.8228 28.3551 34.8893C28.275 34.6561 28.3366 34.4839 28.5396 34.3725ZM22.3381 35.6276C23.4338 35.5291 24.1597 35.9966 24.516 37.0304C24.5406 37.4979 24.5653 37.9655 24.5898 38.4331C24.9901 38.2504 25.4085 38.1274 25.8449 38.064C26.6903 38.196 27.0594 38.6881 26.9523 39.5405C26.8115 40.0012 26.5038 40.2842 26.0295 40.3895C23.8639 40.4388 21.6982 40.4388 19.5326 40.3895C18.5239 40.008 18.3024 39.3559 18.8682 38.4331C19.1029 38.1988 19.3859 38.0758 19.7172 38.064C20.1429 38.1197 20.549 38.2428 20.9354 38.4331C20.9797 37.8631 21.0412 37.2972 21.1199 36.735C21.3554 36.1697 21.7615 35.8006 22.3381 35.6276ZM43.01 42.9366C44.3025 42.8448 45.3361 43.3124 46.1107 44.3393C48.0477 43.8496 49.3643 44.5388 50.0605 46.4065C50.1398 46.8457 50.189 47.2887 50.2082 47.7354C52.005 48.0578 52.7678 49.1159 52.4969 50.91C52.169 51.804 51.5415 52.3577 50.6143 52.5712C44.0188 52.6327 37.4235 52.6204 30.8283 52.5343C30.5961 51.3868 31.0391 50.6363 32.1572 50.2825C32.8262 50.1856 33.4045 50.3701 33.8922 50.8362C34.2361 50.6085 34.5436 50.3379 34.815 50.0241C33.8523 48.9718 32.6957 48.6888 31.3451 49.1751C29.9276 49.8811 29.3123 51.0254 29.4994 52.6081C25.8292 52.6436 22.1624 52.6067 18.499 52.4973C17.4406 51.9676 17.1084 51.1432 17.5023 50.0241C18.0273 49.1898 18.7779 48.8698 19.7541 49.0643C19.8943 47.0905 20.9279 45.8724 22.8549 45.4099C23.6331 45.2968 24.3714 45.4199 25.0697 45.779C25.4389 46.0374 25.808 46.2958 26.1771 46.5542C27.0367 45.0694 28.3286 44.2572 30.0531 44.1179C32.5633 44.3763 34.0029 45.7543 34.3721 48.2522C34.9538 48.0215 35.5567 47.8739 36.1809 47.8093C37.0913 47.8339 37.8542 48.1785 38.4695 48.8429C38.7106 49.2519 38.969 49.6457 39.2447 50.0241C39.5481 49.8317 39.8188 49.5979 40.0568 49.3227C40.8918 48.8547 41.6546 48.9532 42.3455 49.6181C42.7457 49.4267 43.0901 49.1436 43.3791 48.769C42.5044 47.8584 41.4462 47.5508 40.2045 47.8462C39.9821 47.9038 39.773 47.9899 39.577 48.1046C39.1172 47.6238 38.6127 47.2054 38.0635 46.8495C38.4624 45.7029 39.2746 45.1984 40.4998 45.336C40.8732 44.0396 41.7098 43.2398 43.01 42.9366Z" fill="white"/>
<path opacity="0.936" fill-rule="evenodd" clip-rule="evenodd" d="M27.1369 28.2448C28.3139 28.0636 29.0891 28.5312 29.4625 29.6475C29.6194 30.7739 29.1641 31.5245 28.0967 31.8993C27.0036 32.0605 26.253 31.6299 25.8449 30.6073C25.6445 29.4568 26.0751 28.6693 27.1369 28.2448ZM27.5061 29.4999C27.2773 29.6309 27.1296 29.8278 27.0631 30.0905C27.293 30.6966 27.6498 30.795 28.1336 30.3858C28.2945 29.8435 28.0852 29.5482 27.5061 29.4999Z" fill="white"/>
<path opacity="0.936" fill-rule="evenodd" clip-rule="evenodd" d="M32.0096 28.2448C33.0326 28.0735 33.7831 28.4426 34.2613 29.3523C34.614 30.6112 34.1834 31.4602 32.9693 31.8993C31.5879 32.0432 30.825 31.4279 30.6807 30.0536C30.7464 29.1647 31.1893 28.5619 32.0096 28.2448ZM32.3787 29.4999C32.1499 29.631 32.0023 29.8279 31.9357 30.0905C32.1656 30.6967 32.5225 30.7951 33.0063 30.3859C33.1671 29.8436 32.9579 29.5483 32.3787 29.4999Z" fill="white"/>
<path opacity="0.936" fill-rule="evenodd" clip-rule="evenodd" d="M36.8822 28.2448C38.5521 28.1118 39.3273 28.8748 39.2078 30.5335C38.7156 31.806 37.8173 32.212 36.5131 31.7516C35.527 31.0564 35.2932 30.1582 35.8117 29.0569C36.1001 28.6807 36.4569 28.41 36.8822 28.2448ZM37.2514 29.4999C37.0389 29.6268 36.8912 29.8114 36.8084 30.0536C37.017 30.6893 37.3738 30.8 37.8789 30.3858C38.0406 29.8443 37.8314 29.549 37.2514 29.4999Z" fill="white"/>
<path opacity="0.925" fill-rule="evenodd" clip-rule="evenodd" d="M23.224 46.4803C24.1972 46.4993 24.9602 46.9054 25.5127 47.6985C27.2128 47.7131 28.1479 48.5622 28.3182 50.2456C27.8752 50.2456 27.4322 50.2456 26.9893 50.2456C26.9455 49.5175 26.564 49.0991 25.8449 48.9905C25.4775 49.0761 25.1207 49.1991 24.7744 49.3596C24.617 49.0268 24.4816 48.6822 24.3684 48.326C23.7501 47.6703 23.1103 47.6457 22.4488 48.2522C22.3112 48.4805 22.2251 48.7266 22.1904 48.9905C22.2622 49.3018 22.3483 49.5971 22.4488 49.8764C22.1974 50.1189 21.939 50.3526 21.6736 50.5778C21.5998 50.6271 21.526 50.6271 21.4522 50.5778C20.7775 49.5401 20.7652 48.4942 21.4152 47.4401C21.9069 46.893 22.5099 46.5731 23.224 46.4803Z" fill="white"/>
</g>
<defs>
<clipPath id="clip0_2_154">
<rect width="37.8" height="37.8" fill="white" transform="translate(16.0996 16.1001)"/>
</clipPath>
</defs>
</svg>
