<svg width="70" height="70" viewBox="0 0 70 70" fill="none" xmlns="http://www.w3.org/2000/svg">
<circle cx="35" cy="35" r="35" fill="#4144E6"/>
<g clip-path="url(#clip0_2_75)">
<path opacity="0.939" fill-rule="evenodd" clip-rule="evenodd" d="M19.6643 16.0441C29.8628 16.0441 40.0612 16.0441 50.2597 16.0441C51.6052 16.3921 52.4058 17.2543 52.6615 18.6306C52.6985 24.4935 52.7108 30.3564 52.6985 36.2193C52.2551 36.2193 51.8117 36.2193 51.3682 36.2193C51.3806 30.3564 51.3682 24.4935 51.3313 18.6306C51.0904 17.9709 50.6346 17.5398 49.9641 17.3374C39.9627 17.2881 29.9613 17.2881 19.9599 17.3374C19.2894 17.5398 18.8336 17.9709 18.5927 18.6306C18.5557 26.3164 18.5434 34.0022 18.5557 41.6881C18.1123 41.6881 17.6689 41.6881 17.2255 41.6881C17.2132 34.0022 17.2255 26.3164 17.2625 18.6306C17.5182 17.2543 18.3188 16.3921 19.6643 16.0441Z" fill="white"/>
<path opacity="0.94" fill-rule="evenodd" clip-rule="evenodd" d="M20.4772 18.4828C30.1338 18.4705 39.7903 18.4828 49.4468 18.5198C49.8353 18.6865 50.094 18.9698 50.2228 19.3697C50.2597 24.5674 50.2721 29.7652 50.2597 34.963C49.8163 34.963 49.3729 34.963 48.9295 34.963C48.9295 29.8884 48.9295 24.8138 48.9295 19.7392C39.6178 19.7392 30.3062 19.7392 20.9945 19.7392C20.9945 27.0555 20.9945 34.3718 20.9945 41.6881C20.5511 41.6881 20.1077 41.6881 19.6643 41.6881C19.652 34.2486 19.6643 26.8091 19.7012 19.3697C19.8443 18.9682 20.103 18.6726 20.4772 18.4828Z" fill="white"/>
<path opacity="0.939" fill-rule="evenodd" clip-rule="evenodd" d="M53.881 41.2447C53.881 43.5602 53.881 45.8759 53.881 48.1915C53.1912 51.2953 51.2944 53.1922 48.1905 53.8819C47.5254 53.8819 46.8603 53.8819 46.1951 53.8819C43.175 53.2885 41.2905 51.4902 40.5416 48.4871C40.4593 47.2332 40.4224 45.9768 40.4308 44.7181C40.4224 43.4593 40.4593 42.2029 40.5416 40.9491C41.1107 38.5577 42.5271 36.8949 44.791 35.9607C45.3224 35.7786 45.8644 35.643 46.4169 35.5542C46.4415 33.3864 46.4661 31.2186 46.4908 29.0508C46.5025 26.8276 46.4656 24.6105 46.3799 22.3996C46.3132 22.3109 46.227 22.2493 46.1212 22.2149C41.3422 22.1656 36.5633 22.1656 31.7843 22.2149C31.5953 22.2655 31.4598 22.3764 31.3778 22.5474C31.3408 23.2368 31.3286 23.9265 31.3408 24.6167C35.1488 25.0379 37.6737 27.0578 38.9158 30.6767C39.8205 34.24 38.9213 37.2576 36.2184 39.7297C33.596 41.7514 30.7139 42.2194 27.5718 41.1338C24.1025 39.5961 22.2796 36.9232 22.1031 33.1154C22.2154 29.8661 23.6442 27.3904 26.3894 25.6883C27.5123 25.0442 28.7193 24.6871 30.0106 24.6167C29.9847 23.8002 30.0217 22.9873 30.1215 22.1779C30.3361 21.5446 30.7671 21.1382 31.4147 20.9586C36.4401 20.9093 41.4654 20.9093 46.4908 20.9586C47.1812 21.2056 47.6124 21.686 47.784 22.3996C47.7964 26.7847 47.8333 31.1695 47.8949 35.5542C51.1696 36.1196 53.165 38.0163 53.881 41.2447ZM29.715 25.873C33.3071 25.6639 35.8814 27.1665 37.4378 30.3811C38.6376 34.0483 37.6892 37.0167 34.5925 39.2863C31.8379 40.8681 29.1282 40.7942 26.4633 39.0646C23.8517 37.0191 22.9279 34.371 23.692 31.1201C24.6822 28.1957 26.6898 26.4467 29.715 25.873ZM46.7864 36.8105C49.5213 36.8402 51.3811 38.1212 52.366 40.6534C52.4631 40.9678 52.5246 41.288 52.5507 41.6142C51.3683 41.6142 50.1859 41.6142 49.0034 41.6142C49.107 39.8576 48.2941 39.0816 46.5647 39.2863C45.5592 39.7323 45.1404 40.5082 45.3083 41.6142C44.1259 41.6142 42.9435 41.6142 41.761 41.6142C42.1034 39.5378 43.2366 38.0721 45.1605 37.217C45.6973 37.019 46.2393 36.8835 46.7864 36.8105ZM46.9342 40.5056C47.3265 40.4365 47.5852 40.5843 47.7101 40.9491C47.7594 41.8605 47.7594 42.772 47.7101 43.6834C47.4875 44.0555 47.1795 44.1418 46.7864 43.9421C46.6964 43.8203 46.6349 43.6848 46.6016 43.5356C46.5523 42.6981 46.5523 41.8605 46.6016 41.023C46.6684 40.821 46.7793 40.6485 46.9342 40.5056ZM41.6871 42.9444C42.8942 42.9444 44.1013 42.9444 45.3083 42.9444C45.2452 44.8407 46.132 45.592 47.9688 45.1984C48.8596 44.7088 49.2045 43.9575 49.0034 42.9444C50.2105 42.9444 51.4176 42.9444 52.6246 42.9444C52.637 44.5458 52.6246 46.147 52.5877 47.748C52.0247 50.7621 50.2141 52.3879 47.1559 52.6256C43.9966 52.3608 42.186 50.661 41.7241 47.5263C41.6871 45.9992 41.6748 44.4719 41.6871 42.9444Z" fill="white"/>
<path opacity="0.93" fill-rule="evenodd" clip-rule="evenodd" d="M30.0106 26.9816C30.454 26.9816 30.8974 26.9816 31.3408 26.9816C31.3165 27.4033 31.3412 27.822 31.4147 28.2379C33.0216 28.6416 33.8099 29.6762 33.7796 31.3418C33.3361 31.3418 32.8927 31.3418 32.4493 31.3418C32.5441 30.415 32.1499 29.8114 31.2669 29.5312C30.4344 29.3356 29.7323 29.5449 29.1607 30.1594C28.6686 31.1711 28.9272 31.9225 29.9367 32.4134C30.5001 32.4944 31.0667 32.5436 31.6364 32.5612C33.1597 33.051 33.8618 34.098 33.7426 35.702C33.4565 37.0105 32.656 37.7741 31.3408 37.993C31.3408 38.4118 31.3408 38.8305 31.3408 39.2493C30.8974 39.2493 30.454 39.2493 30.0106 39.2493C30.0106 38.8305 30.0106 38.4118 30.0106 37.993C28.3759 37.6592 27.563 36.6492 27.5718 34.963C28.0152 34.963 28.4586 34.963 28.902 34.963C28.8398 35.8234 29.2093 36.4022 30.0106 36.6997C30.5339 36.765 31.0512 36.7404 31.5625 36.6258C32.2926 36.2369 32.5759 35.6334 32.4124 34.8152C32.2207 34.3032 31.8635 33.9706 31.3408 33.8175C30.0556 34.0051 28.9841 33.6234 28.1261 32.672C27.2754 31.1876 27.4847 29.8697 28.7542 28.7183C29.124 28.4964 29.5181 28.3363 29.9367 28.2379C30.0102 27.822 30.0349 27.4033 30.0106 26.9816Z" fill="white"/>
<path opacity="0.968" fill-rule="evenodd" clip-rule="evenodd" d="M16.0431 42.8705C19.7136 42.8705 23.384 42.8705 27.0545 42.8705C27.0545 43.2893 27.0545 43.708 27.0545 44.1268C23.8028 44.1268 20.5511 44.1268 17.2994 44.1268C17.2694 44.9445 17.3064 45.7574 17.4103 46.5656C17.6643 47.1892 18.12 47.5711 18.7775 47.7111C25.6011 47.748 32.4247 47.7604 39.2483 47.748C39.2483 48.1669 39.2483 48.5856 39.2483 49.0044C32.3015 49.0167 25.3547 49.0044 18.408 48.9674C17.1874 48.6213 16.3992 47.8454 16.0431 46.6395C16.0431 45.3832 16.0431 44.1268 16.0431 42.8705Z" fill="white"/>
<path opacity="0.968" fill-rule="evenodd" clip-rule="evenodd" d="M28.2369 42.8705C31.9074 42.8705 35.5778 42.8705 39.2483 42.8705C39.2483 43.2893 39.2483 43.708 39.2483 44.1268C35.9966 44.1268 32.745 44.1268 29.4933 44.1268C29.4811 44.3744 29.4934 44.6207 29.5302 44.8659C29.6165 45.0506 29.7519 45.1861 29.9367 45.2723C33.0405 45.3093 36.1444 45.3216 39.2483 45.3093C39.2483 45.7281 39.2483 46.1468 39.2483 46.5656C35.9429 46.6014 32.6419 46.5644 29.3455 46.4548C28.7791 46.2332 28.4219 45.8267 28.2739 45.2354C28.2369 44.4475 28.2246 43.6592 28.2369 42.8705Z" fill="white"/>
<path opacity="0.892" fill-rule="evenodd" clip-rule="evenodd" d="M19.6643 45.3093C20.1077 45.3093 20.5511 45.3093 20.9945 45.3093C20.9945 45.7281 20.9945 46.1468 20.9945 46.5656C20.5511 46.5656 20.1077 46.5656 19.6643 46.5656C19.6643 46.1468 19.6643 45.7281 19.6643 45.3093Z" fill="white"/>
<path opacity="0.892" fill-rule="evenodd" clip-rule="evenodd" d="M22.1031 45.3093C22.5465 45.3093 22.9899 45.3093 23.4333 45.3093C23.4333 45.7281 23.4333 46.1468 23.4333 46.5656C22.9899 46.5656 22.5465 46.5656 22.1031 46.5656C22.1031 46.1468 22.1031 45.7281 22.1031 45.3093Z" fill="white"/>
<path opacity="0.892" fill-rule="evenodd" clip-rule="evenodd" d="M24.5418 45.3093C24.9852 45.3093 25.4286 45.3093 25.872 45.3093C25.872 45.7281 25.872 46.1468 25.872 46.5656C25.4286 46.5656 24.9852 46.5656 24.5418 46.5656C24.5418 46.1468 24.5418 45.7281 24.5418 45.3093Z" fill="white"/>
</g>
<defs>
<clipPath id="clip0_2_75">
<rect width="37.8378" height="37.8378" fill="white" transform="translate(16.0801 16.0811)"/>
</clipPath>
</defs>
</svg>
