<svg width="75" height="43" viewBox="0 0 75 43" fill="none" xmlns="http://www.w3.org/2000/svg">
<rect x="3.68425" y="16.2246" width="58.9484" height="10.9752" fill="#FF8605"/>
<rect x="53.4226" y="11.4521" width="20.0417" height="15.6582" transform="rotate(90 53.4226 11.4521)" fill="#FF8605"/>
<path d="M33.1585 4.9329C33.1585 2.6839 35.5416 1.2346 37.5385 2.26916L69.4649 18.8094C71.6249 19.9285 71.6249 23.0179 69.4649 24.1369L37.5385 40.6772C35.5416 41.7118 33.1585 40.2625 33.1585 38.0135L33.1585 33.0625C33.1585 31.4056 31.8153 30.0625 30.1585 30.0625L3 30.0625C1.34315 30.0625 -8.61072e-07 28.7193 -9.6135e-07 27.0625L-1.63792e-06 15.8839C-1.73819e-06 14.2271 1.34314 12.8839 3 12.8839L30.1585 12.8839C31.8153 12.8839 33.1585 11.5408 33.1585 9.88391L33.1585 4.9329ZM57.0305 24.1369C59.1905 23.0179 59.1905 19.9285 57.0305 18.8094L45.0049 12.5793C43.3833 11.7392 41.4481 12.9161 41.4481 14.7424C41.4481 16.0878 40.3574 17.1786 39.0119 17.1786L11.2896 17.1786C9.63276 17.1786 8.28962 18.5217 8.28962 20.1786L8.28962 22.7678C8.28962 24.4247 9.63276 25.7678 11.2896 25.7678L39.0119 25.7678C40.3574 25.7678 41.4481 26.8585 41.4481 28.204C41.4481 30.0303 43.3833 31.2072 45.0049 30.3671L57.0305 24.1369Z" fill="#FF8605"/>
</svg>
