<svg width="50" height="50" viewBox="0 0 50 50" fill="none" xmlns="http://www.w3.org/2000/svg">
<circle cx="25" cy="25" r="25" fill="#F0F0F0"/>
<g clip-path="url(#clip0_18_68)">
<path d="M38.3209 25.2493C38.3209 24.1567 38.233 23.3595 38.0427 22.5327H25.6738V27.4638H32.9341C32.7878 28.6893 31.9973 30.5347 30.2408 31.7749L30.2162 31.9399L34.127 34.9957L34.3979 35.023C36.8863 32.705 38.3209 29.2945 38.3209 25.2493Z" fill="#4285F4"/>
<path d="M25.6741 38.2416C29.231 38.2416 32.2171 37.0604 34.3982 35.023L30.241 31.7749C29.1286 32.5574 27.6355 33.1037 25.6741 33.1037C22.1903 33.1037 19.2335 30.7858 18.1795 27.582L18.025 27.5953L13.9585 30.7695L13.9053 30.9186C16.0716 35.2592 20.5215 38.2416 25.6741 38.2416Z" fill="#34A853"/>
<path d="M18.1794 27.5821C17.9013 26.7553 17.7403 25.8694 17.7403 24.9541C17.7403 24.0387 17.9013 23.1529 18.1648 22.3261L18.1574 22.15L14.0399 18.9248L13.9052 18.9894C13.0123 20.7907 12.5 22.8134 12.5 24.9541C12.5 27.0949 13.0123 29.1175 13.9052 30.9187L18.1794 27.5821Z" fill="#FBBC05"/>
<path d="M25.6741 16.8043C28.1478 16.8043 29.8165 17.8821 30.768 18.7827L34.486 15.1213C32.2025 12.9805 29.231 11.6665 25.6741 11.6665C20.5215 11.6665 16.0716 14.6488 13.9053 18.9894L18.1648 22.326C19.2335 19.1223 22.1903 16.8043 25.6741 16.8043Z" fill="#EB4335"/>
</g>
<defs>
<clipPath id="clip0_18_68">
<rect x="12.5" y="11.6665" width="25.8333" height="26.6667" rx="10" fill="white"/>
</clipPath>
</defs>
</svg>
