<svg width="8" height="12" viewBox="0 0 8 12" fill="none" xmlns="http://www.w3.org/2000/svg">
<path d="M0.27465 0.234846C0.361131 0.160403 0.463868 0.101341 0.576975 0.061042C0.690081 0.0207433 0.811337 0 0.933795 0C1.05625 0 1.17751 0.0207433 1.29061 0.061042C1.40372 0.101341 1.50646 0.160403 1.59294 0.234846L7.78219 5.54907C7.85123 5.60823 7.90601 5.67851 7.94339 5.75587C7.98076 5.83323 8 5.91616 8 5.99992C8 6.08367 7.98076 6.1666 7.94339 6.24396C7.90601 6.32133 7.85123 6.3916 7.78219 6.45076L1.59294 11.765C1.22799 12.0783 0.6396 12.0783 0.27465 11.765C-0.0902996 11.4516 -0.0902996 10.9464 0.27465 10.6331L5.66697 5.99672L0.267203 1.36036C-0.0902983 1.0534 -0.0902996 0.541804 0.27465 0.234846Z" fill="#0B0460"/>
</svg>
